<?xml version="1.0" standalone="no"?>
<!DOCTYPE svg PUBLIC "-//W3C//DTD SVG 20010904//EN"
 "http://www.w3.org/TR/2001/REC-SVG-20010904/DTD/svg10.dtd">
<svg version="1.0" xmlns="http://www.w3.org/2000/svg"
 width="512.000000pt" height="512.000000pt" viewBox="0 0 512.000000 512.000000"
 preserveAspectRatio="xMidYMid meet">
<metadata>
Created by potrace 1.11, written by Peter Selinger 2001-2013
</metadata>
<g transform="translate(0.000000,512.000000) scale(0.100000,-0.100000)"
fill="#000000" stroke="none">
<path d="M3813 5053 c-39 -38 -205 -199 -369 -360 -318 -310 -492 -479 -543
-528 l-31 -29 -125 124 -125 124 -1243 -1244 c-683 -685 -1249 -1258 -1257
-1275 -8 -16 -20 -37 -27 -46 -39 -48 -84 -213 -87 -319 -4 -159 38 -279 166
-473 32 -49 58 -91 58 -93 0 -7 135 -190 173 -234 85 -100 251 -260 358 -344
45 -35 394 -262 444 -288 74 -39 155 -59 250 -63 144 -6 273 34 385 117 57 44
2520 2501 2520 2515 0 4 -57 65 -127 136 -71 70 -123 127 -117 125 11 -3 994
973 994 987 0 4 -276 284 -614 621 l-613 614 -70 -67z"/>
</g>
</svg>
